<?xml version="1.0" encoding="UTF-8"?>
<svg id="uuid-054b5f66-2106-40fc-a273-cc52f83c152a" data-name="uuid-5038764c-fe92-4408-ae1e-ea6207e43eab" xmlns="http://www.w3.org/2000/svg" viewBox="0 0 928 317.05">
  <path d="M266.67,232.53l-1.69,24.22c-.2,2.92-2.53,5.24-5.45,5.45l-58.14,4.15c-.14.01-.28.02-.42.02-2.89,0-5.38-2.12-5.81-5.02l-3.33-22.61h-47.44l-3.33,22.61c-.45,3.04-3.17,5.23-6.23,5.01l-58.14-4.15c-2.92-.21-5.24-2.53-5.45-5.45l-1.69-24.22-49.08-4.73c.02,5.28.09,11.05.09,12.2,0,51.84,65.76,76.75,147.46,77.04h.2c81.7-.29,147.44-25.2,147.44-77.04,0-1.17.07-6.93.1-12.2l-49.07,4.73h-.02Z" style="fill: #fff;"/>
</svg>