<?xml version="1.0" encoding="UTF-8"?>
<svg id="uuid-6158f4b4-fcff-4aa8-946c-7b7412aa1b78" data-name="Layer 1" xmlns="http://www.w3.org/2000/svg" viewBox="0 0 800 800">
  <path d="M109.06,109.06c22.98-22.97,60.23-22.97,83.21,0l208.08,208.08,208.08-208.08c23.38-22.58,60.63-21.93,83.21,1.45,22.03,22.8,22.03,58.96,0,81.76l-208.08,208.08,208.08,208.08c22.58,23.38,21.93,60.63-1.44,83.21-22.8,22.03-58.96,22.03-81.76,0l-208.08-208.08-208.08,208.08c-23.38,22.58-60.63,21.93-83.21-1.45-22.03-22.8-22.03-58.96,0-81.76l208.08-208.08L109.06,192.27c-22.97-22.98-22.97-60.23,0-83.21h0Z" style="fill: #1a2b5b;"/>
</svg>