<?xml version="1.0" encoding="UTF-8"?>
<svg id="uuid-a2224322-9e96-4f3a-b2eb-656fba221d4d" data-name="Layer 1" xmlns="http://www.w3.org/2000/svg" viewBox="0 0 800 800">
  <path d="M83.97,260.76c-17.31,31.62-17.31,69.76-17.31,146.04v50.7c0,130.03,0,195.04,39.05,235.44,39.05,40.4,101.91,40.4,227.61,40.4h133.33c125.71,0,188.56,0,227.61-40.4,39.05-40.39,39.05-105.41,39.05-235.44v-50.7c0-76.28,0-114.42-17.31-146.04-17.31-31.62-48.92-51.24-112.16-90.49l-66.67-41.37c-66.85-41.49-100.27-62.23-137.2-62.23s-70.35,20.74-137.2,62.23l-66.67,41.38c-63.24,39.25-94.85,58.87-112.16,90.49ZM314.89,513.25c-11.09-8.22-26.75-5.9-34.97,5.2-8.22,11.09-5.9,26.75,5.2,34.97,32.41,24.03,72.05,38.25,114.89,38.25s82.47-14.22,114.89-38.25c11.09-8.22,13.42-23.88,5.2-34.97-8.22-11.09-23.88-13.42-34.97-5.2-24.28,17.99-53.58,28.42-85.11,28.42s-60.83-10.42-85.11-28.42Z" style="fill: #1c274c; fill-rule: evenodd;"/>
</svg>