<?xml version="1.0" encoding="UTF-8"?>
<svg id="uuid-902d19a2-6311-44d8-a4c9-f7d49562263e" data-name="Layer 1" xmlns="http://www.w3.org/2000/svg" viewBox="0 0 800 800">
  <path d="M459.29,71.74c-12.34-5.07-27.99-5.07-59.29-5.07s-46.95,0-59.29,5.07c-16.46,6.77-29.54,19.74-36.35,36.08-3.11,7.46-4.33,16.13-4.81,28.78-.7,18.59-10.31,35.8-26.54,45.1-16.23,9.3-36.05,8.95-52.62.26-11.28-5.92-19.45-9.2-27.52-10.26-17.66-2.31-35.53,2.44-49.66,13.21-10.6,8.07-18.43,21.52-34.08,48.42-15.65,26.9-23.47,40.35-25.22,53.5-2.33,17.53,2.46,35.26,13.31,49.29,4.95,6.4,11.91,11.78,22.71,18.52,15.87,9.9,26.09,26.76,26.09,45.37s-10.21,35.46-26.09,45.36c-10.8,6.74-17.76,12.12-22.71,18.52-10.85,14.03-15.63,31.75-13.31,49.28,1.74,13.15,9.57,26.6,25.22,53.5,15.65,26.9,23.47,40.35,34.08,48.42,14.13,10.76,32,15.51,49.66,13.21,8.06-1.05,16.24-4.34,27.51-10.26,16.57-8.69,36.39-9.04,52.63.26,16.23,9.3,25.84,26.51,26.54,45.1.48,12.65,1.69,21.32,4.81,28.78,6.82,16.33,19.89,29.31,36.35,36.08,12.34,5.07,27.99,5.07,59.29,5.07s46.95,0,59.29-5.07c16.46-6.77,29.54-19.75,36.35-36.08,3.11-7.46,4.33-16.13,4.81-28.78.7-18.59,10.3-35.8,26.54-45.1,16.23-9.3,36.05-8.95,52.63-.26,11.28,5.91,19.45,9.2,27.51,10.25,17.66,2.31,35.53-2.44,49.66-13.2,10.6-8.07,18.43-21.52,34.08-48.43,15.65-26.9,23.47-40.35,25.22-53.5,2.32-17.53-2.46-35.26-13.31-49.29-4.95-6.4-11.91-11.79-22.71-18.52-15.87-9.9-26.08-26.76-26.08-45.36s10.21-35.46,26.08-45.36c10.8-6.74,17.76-12.12,22.71-18.52,10.84-14.03,15.63-31.75,13.31-49.28-1.75-13.15-9.57-26.6-25.22-53.5s-23.47-40.35-34.08-48.42c-14.13-10.76-32-15.51-49.66-13.21-8.06,1.05-16.24,4.34-27.51,10.26-16.57,8.69-36.39,9.04-52.63-.26-16.23-9.3-25.84-26.51-26.54-45.1-.48-12.65-1.69-21.32-4.81-28.78-6.82-16.34-19.89-29.31-36.35-36.08ZM400,500c55.65,0,100.76-44.77,100.76-100s-45.11-100-100.76-100-100.76,44.77-100.76,100,45.11,100,100.76,100Z" style="fill: #425896; fill-rule: evenodd;"/>
</svg>